<?xml version="1.0" encoding="utf-8"?>
<!-- Generator: Adobe Illustrator 25.1.0, SVG Export Plug-In . SVG Version: 6.00 Build 0)  -->
<svg version="1.1" id="Layer_1" xmlns="http://www.w3.org/2000/svg" xmlns:xlink="http://www.w3.org/1999/xlink" x="0px" y="0px"
	 viewBox="0 0 901.3 153.7" style="enable-background:new 0 0 901.3 153.7;" xml:space="preserve">
<g id="Layer_1_2_">
	<g id="Layer_2_1_">
	</g>
	<g id="Layer_1_1_">
		<g>
			<path d="M131.4,20.4c-3.2,2.4-4.4,5.7-5.1,9.2c-0.3,1.5-0.3,3.1-0.5,4.7c-0.3,2-0.6,4.1-1.1,6.1c-0.3,1.2-1.3,2-2.5,2.4
				c-0.2,0.1-0.7,0-0.8-0.2c-0.2-0.2-0.2-0.6-0.1-0.8c0.9-1.8,1.4-3.6,1.7-5.6c0.2-1.6,0.5-3.1,0.6-4.7c0.2-2.1,0.3-4.1,0.4-6.2
				c0-0.8,0-1.7,0-2.7c-0.4,0.2-0.8,0.3-0.9,0.5c-1.9,2.8-3.6,5.6-4.5,8.8c-0.7,2.4-1,4.9-1.1,7.5c-0.1,2.3-0.6,4.5-2.1,6.4
				c-0.2,0.2-0.4,0.5-0.7,0.6c-0.4,0.1-0.9,0.3-1.2,0.1c-0.2-0.2-0.3-0.8-0.2-1.1c1-2.2,1.3-4.6,1.8-7c0.3-1.5,0.4-3.1,0.5-4.6
				c0.1-2.1,0.2-4.1,0.2-6.2c0-1.1-0.1-2.1-0.2-3.5c-0.7,0.6-1.4,1-1.9,1.5c-1.4,1.4-2.6,3-3.2,4.8c-0.6,1.6-1.1,3.2-1.2,4.8
				c-0.3,3.1-0.4,6.2-0.5,9.2c0,0.9,0.1,1.9,0.2,2.8c0.1,1-0.1,1.8-1.1,2.3c-0.8,0.4-1.6,0.9-2.5,1.3c-0.9,0.4-1.4,0.1-1.2-0.8
				c0.1-0.8,0.4-1.5,0.6-2.2c0.6-2.1,1.2-4.2,1.7-6.3c0.4-1.9,0.7-3.9,0.8-5.8c0.1-2.4,0.1-4.8,0-7.2c0-0.7-0.1-1.3-0.3-2
				c0-0.2-0.3-0.4-0.5-0.5c-0.1,0-0.4,0.2-0.5,0.3c-1.3,2.1-2.7,4.1-3.9,6.3c-1.1,2-1.7,4.2-1.8,6.5c-0.2,2.5-0.2,5.1-0.4,7.6
				c-0.1,2-0.4,4-0.7,6c-0.1,0.7-0.5,1.4-0.9,2.1c-0.2,0.3-0.7,0.6-1.1,0.7c-0.4,0.1-0.8,0.1-1.2-0.1c-0.1-0.1-0.1-0.7,0-1
				c1.2-2.4,1-5,1.2-7.6c0.2-2.6,0.3-5.2,0.4-7.7c0.1-2.3,0.2-4.5,0.1-6.8c0-1.1-0.3-2.2-0.5-3.2c-0.1-0.2-0.3-0.6-0.6-0.6
				c-0.2,0-0.5,0.2-0.7,0.5c-1.6,2.6-3.3,5.2-4.7,7.9c-0.7,1.3-0.8,2.9-0.9,4.4c-0.1,2.8,0,5.6-0.1,8.4c-0.1,2.4-0.1,4.9-0.4,7.3
				c-0.2,2.3-1,4.3-2.9,5.8c0,0,0,0-0.1,0.1c-0.4,0.2-0.9,0.3-1.3,0.5c0-0.5-0.2-1,0-1.3c0.9-2.5,1.2-5,1-7.7
				c-0.1-3.1-0.3-6.2-0.5-9.2c-0.1-1.7-0.2-3.4-0.4-5.1c-0.2-2.1-0.5-4.3-0.9-6.4c-0.1-0.4-0.3-0.7-0.5-1.1
				c-2.1,2.2-3.8,4.5-4.3,7.4c-0.5,2.6-0.9,5.2-1,7.8c0,1-0.1,2-0.2,3c0,2,0.1,4.1,0,6.1c-0.1,2.6,0.3,5.1,1.5,7.5
				c0.9,2,2.2,3.7,3.8,5.2c2.3,2.4,5.1,4.2,7.9,5.9c1.7,1,3.4,2,5.2,2.8c2.1,0.9,4.2,1.7,6.4,2.5c0.8,0.3,1.6,0.4,2.5,0.7
				c-2.5,1.9-4.9,3.7-7.2,5.6c-1.5,1.2-3,2.5-4.5,3.8c-1.8,1.7-3.7,3.3-5.2,5.2c-1,1.2-1.6,2.7-2.1,4.2c-0.8,1.9-1.5,3.9-2,5.9
				c-0.6,2.3-1.1,4.7-1.4,7.1c-0.4,2.4-0.5,4.9-0.7,7.3c-0.1,1.2-0.1,2.4-0.3,3.6c-0.1,0.7-0.4,1.5-0.8,2.1c-1.4,1.8-3,3.4-5.1,4.5
				c-2.6,1.3-5.1,2.9-7.7,4.3c-2.2,1.3-4.4,2.6-6.7,3.9c-2.5,1.4-5,2.8-7.5,4.2c-2.5,1.4-5,2.8-7.5,4.2c-2.6,1.5-5.3,3-7.9,4.5
				c-1.1,0.6-2.2,1.2-3.3,1.7c-0.3,0.1-0.6,0.2-0.9,0.1c-0.5-0.1-0.9-0.3-0.8-1c0.3-1.6,1.3-2.7,2.1-4c0.2-0.4,0.4-0.8,0.6-1.1
				c-0.1-0.1-0.1-0.1-0.2-0.2c-0.7,0.3-1.5,0.6-2.3,0.9c-1,0.4-2,0.9-3,1.2c-0.4,0.1-1,0-1.2-0.2c-0.2-0.2-0.2-0.9-0.1-1.2
				c0.4-0.9,1-1.7,1.6-2.6c0.8-1.2,1.6-2.3,2.3-3.5c1.1-2,2.8-3.3,4.8-4.3c2.1-0.9,4.1-1.9,6.2-2.9c2.5-1.2,5-2.3,7.5-3.5
				c2.7-1.4,5.4-2.7,8-4.4c2-1.3,3.4-3.2,4.7-5.2c2.6-4.2,4.1-8.8,5.3-13.5c0.5-2.1,1.1-4.1,1.5-6.2c0.4-2.2,0.5-4.4,0.7-6.6
				c0.1-1.1,0.2-2.2,0.2-3.2c-0.1-1.9-0.3-3.8-0.5-5.6c0-0.6-0.3-0.7-0.8-0.7c-1-0.1-2-0.3-3-0.3c-2.2,0-4.3-0.7-6.4-1.1
				c-0.8-0.2-1.5-0.4-2.4-0.6c0.2,1.1,0.6,2,0.7,3.1c0.3,2.3,0.6,4.6,0.7,6.9c0.1,2,0.1,4,0.7,5.9c0.4,1.2,1,2.3,2.4,2.4
				c1,0.1,2-0.2,2.9-0.7c0.6-0.3,1.1-0.6,1.7-1c0.7-0.4,1.2-0.1,1.2,0.7c0,2-0.7,3.5-2.6,4.3c-2.8,1.1-5.5,1.3-8-0.7
				c-0.6,1.5-1.9,1.8-3.3,2c-1.1,0.1-2.2,0.2-3.3,0c-2.1-0.4-3.5-1.9-4.5-3.7c-1.1-2-1.7-4.2-1.9-6.6c-0.3-2.4-0.7-4.7-1.2-7
				c-0.2-0.9-0.7-1.9-1.2-2.6c-0.4-0.6-1.2-0.8-1.8-1.3c-1.5-1.1-3.2-2.1-4.6-3.3c-1.8-1.5-3.6-3.1-5.1-5c-2-2.4-3.8-5-5.6-7.6
				c-1.2-1.8-2.1-3.8-3.1-5.7c-0.4-0.7-1.1-1.1-1.8-0.9c-2,0.7-3.8,0.1-5.7-0.3c-2.2-0.5-4.3-1.4-6.3-2.5c-2.2-1.3-4.5-1.5-7-0.9
				c-1,0.2-1.7-0.2-2.2-0.9c-1.4-1.8-1.9-5.2-0.2-7.2c0.5-0.6,1.1-1.2,1.8-1.5c1.8-0.8,3.6-1.3,5.6-1.4c1.7-0.2,3.2-0.9,4.4-2.1
				c1.4-1.3,2.8-2.6,4.6-2.9c1.2-0.2,1.7-0.9,2.3-1.8c1.9-2.9,4.3-5.3,7.3-7c1.6-0.9,3.4-1.1,5-1.7c0.3-0.1,0.5-0.2,0.9-0.3
				c-0.7,2.7-1.8,5.2-3,7.8c1-0.4,1.8-0.8,2.6-1c1.2-0.4,2.4-0.8,3.6-0.9c1.4-0.1,2.8,0.2,4.2,0.3c0.8,0.1,1.6,0.3,2.4,0.4
				c-0.3,0.4-0.6,0.8-0.9,1.2c-1.9,2.3-4.1,4.3-6.5,5.9c-1.2,0.8-2.7,0.9-4.1,1.3c-0.4,0.1-0.9,0.1-1.4,0.2
				c-0.3,0.1-0.7,0.2-0.7,0.3c0,0.4,0,0.8,0.3,1.1c0.6,0.6,1.2,1.2,1.9,1.6c1.8,1.2,3.7,2.4,5.6,3.5c1,0.5,2.2,0.8,3.4,0.9
				c2.2,0.1,4.4,0.1,6.5-0.6c2.6-0.9,4.8-2.3,6.5-4.4c0.7-0.8,1.4-1.7,2.1-2.5c1.1-1.2,2.1-2.5,3.3-3.6c2.8-2.5,5.6-5.1,8.6-7.4
				c4.1-3.2,8.7-5.6,13.5-7.6c2.2-0.9,4.4-1.8,6.6-2.5c3.7-1.2,7.5-2.3,11.3-3.2c2.8-0.7,5.6-1,8.4-1.4c2.7-0.4,5.4-0.8,8.1-1
				c1.9-0.2,3.7-0.2,5.6-0.2c2.4-0.1,4.7-0.1,7.1-0.1C129.1,20.4,130.2,20.4,131.4,20.4z M57.6,102.6c-1.3-3.1-2.6-6.3-3.9-9.4
				c-0.1,0-0.2,0-0.3,0c-0.2,2.1-0.5,4.1-0.6,6.2c0,0.8,0.4,1.8,0.9,2.5C54.4,103.1,56.1,103.2,57.6,102.6z"/>
			<path d="M88.1,66.6c0.1-0.4,0.1-0.8,0.3-0.9c1.5-1.3,3-2.6,4.5-3.8c0.6-0.4,1.2-0.3,1.7,0.3c1.8,2,3.8,3.7,6,5.3
				c3.2,2.4,6.7,4.2,10.3,5.7c1.2,0.5,2.5,0.9,3.9,1.4c-1.2,1-2.3,2-3.5,2.9c-0.1,0.1-0.4,0-0.6-0.1c-2.5-1.7-4.9-3.5-7.5-5
				c-2.7-1.6-5.6-2.9-8.4-4.3C92.7,66.9,90.5,66.5,88.1,66.6z"/>
			<path d="M128.7,62.2c-1.1,0.8-2.2,1.7-3.4,2.6c-0.1,0.1-0.5,0-0.7-0.1c-2.1-1.7-4.2-3.6-6.4-5.2c-2.1-1.5-4.4-3-6.7-4.2
				c-1.1-0.6-2.4-0.7-3.6-1.1c-0.4-0.1-0.8-0.4-1.1-0.6c0.2-0.3,0.3-0.6,0.6-0.9c1-1,2.2-1.8,3.6-2.3c0.7-0.2,1.2,0.1,1.6,0.6
				c1.9,2.2,3.9,4.2,6.2,6c2,1.6,4.2,2.9,6.6,4C126.4,61.5,127.6,61.8,128.7,62.2z"/>
			<path d="M121.8,68.1c-0.8,0.7-1.7,1.5-2.5,2.3c-1,0.9-1,0.8-2-0.2c-3.2-3-6.7-5.8-10.5-8c-2-1.2-4.2-1.9-6.4-2.6
				c-0.8-0.3-1.8-0.1-2.6-0.1c-0.1,0-0.3-0.1-0.5-0.1c0.1-0.3,0.2-0.5,0.4-0.7c1-0.8,2-1.6,3.1-2.2c1.6-0.9,2.1-0.8,3.4,0.3
				c1.9,1.7,3.7,3.5,5.7,5.1c1.4,1.1,3,2,4.7,2.8C116.8,66,119.3,67,121.8,68.1z"/>
			<path d="M131.7,20.5c1.9,0,3.7,0,5.5,0c-0.6,1-1.2,2-1.8,3c-1.2,2-1.9,4.1-2.2,6.4c-0.4,2.3-0.5,4.7-0.9,7
				c-0.1,0.8-0.5,1.6-0.8,2.4c-0.2,0.5-1.6,1.1-2.1,0.9c-0.4-0.2-0.8-0.4-0.6-1.1c0.5-1.3,1.1-2.6,1.4-3.9c0.4-1.9,0.7-3.8,0.9-5.7
				C131.4,26.5,131.5,23.5,131.7,20.5z"/>
			<path d="M138.7,20.7c1.5,0,2.9,0,4.5,0c-0.6,1.4-1.1,2.7-1.6,4.1c-1,2.9-1.6,5.8-1.5,8.9c0,1.9-1,3.3-2.9,3.9
				c-0.8,0.3-1-0.3-1-0.8c-0.1-0.5,0-1.1,0.2-1.6c1-2.1,1.3-4.4,1.7-6.7c0.4-2.4,0.5-4.9,0.7-7.3C138.7,21,138.7,20.8,138.7,20.7z"
				/>
			<path d="M140.4,54.1c-1.1,0.8-2.1,1.4-3.1,2.1c-0.7-0.8-1.5-1.6-2.3-2.3c-2.6-2.4-5.1-4.9-8-6.9c-1-0.7-2.2-1.1-3.2-1.7
				c-0.3-0.1-0.6-0.3-0.7-0.6c-0.1-0.2,0.3-0.6,0.5-0.7c1-0.5,2.1-1,3.2-1.4c0.7-0.2,1.3,0,1.7,0.8c1.7,3.3,4.4,5.9,7.2,8.3
				C137.1,52.8,138.5,53.7,140.4,54.1z"/>
			<path d="M134.8,57.9c-1,0.7-2.1,1.4-3.1,2.1c-1.4-1.2-2.7-2.5-4.1-3.6c-2.3-1.9-4.6-3.7-7-5.4c-1.3-0.9-2.9-1.5-4.4-2.2
				c-0.7-0.3-0.8-0.5-0.3-1c0.9-0.8,1.9-1.4,3.1-1.6c1-0.2,1.5,0.7,2,1.4c0.9,1.5,2.1,2.8,3.4,3.9c2.7,2.4,5.7,4.1,9,5.6
				C133.9,57.3,134.4,57.6,134.8,57.9z"/>
			<path d="M130.7,41.7c1.3-1.5,4.1-2.1,5.3-0.1c0.8,1.2,2,2.2,3,3.3c1.5,1.6,3.2,2.9,5.1,4c0.8,0.4,1.6,0.7,2.4,1.1
				c-1.3,0.8-2.5,1.7-3.7,2.5c-0.2,0.1-0.7-0.1-0.9-0.3c-1.9-2.8-4.1-5.3-6.6-7.6c-1-0.9-2.3-1.5-3.4-2.2
				C131.6,42.2,131.2,42,130.7,41.7z"/>
			<path d="M152.5,45.8c-1.2,0.9-2.4,1.7-3.7,2.6c-1-1-1.9-2.1-2.9-3.1c-1.2-1.2-2.4-2.4-3.7-3.4c-1.1-0.9-2.4-1.5-3.6-2.3
				c-0.5-0.3-0.6-0.6,0-0.9c1-0.6,2.1-0.4,3.2-0.4c1,0,1.6,0.7,2.2,1.3c2.4,2.6,5.2,4.5,8.4,6C152.4,45.6,152.5,45.7,152.5,45.8z"/>
			<path d="M158.6,41.6c-1.2,0.8-2.2,1.6-3.1,2.2c-2.1-1.7-4-3.4-6.1-4.9c-1-0.7-2.2-1.1-3.3-1.6c-0.3-0.1-0.7-0.4-0.7-0.7
				c0-0.3,0.3-0.6,0.6-0.8c1.2-0.7,2.6-0.8,3.9-0.6c0.7,0.1,1.3,0.9,1.9,1.5c1.7,1.7,3.6,3.3,5.8,4.4
				C157.8,41.3,158.2,41.4,158.6,41.6z"/>
			<path d="M148.8,20.5c-0.4,1.2-0.9,2.3-1.2,3.5c-0.4,1.3-0.7,2.7-0.9,4.1c-0.2,1.5-0.2,3-0.4,4.6c-0.1,1.2-2,2.9-3.3,2.7
				c-0.4,0-0.6-0.3-0.4-0.8c0.5-1.8,1.1-3.6,1.5-5.5c0.4-1.7,0.6-3.4,0.8-5.1c0.1-0.8,0.1-1.6,0.2-2.4c0-0.6,0.3-1,1-1
				C147,20.6,147.9,20.5,148.8,20.5z"/>
			<path d="M151.7,20c1.2-0.2,2.4-0.4,3.5-0.7c-0.5,1.7-0.9,3.3-1.3,5c-0.3,1.4-0.5,2.9-0.7,4.4c-0.1,0.7-0.2,1.5-0.4,2.2
				c-0.1,0.3-0.5,0.6-0.8,0.8c-0.6,0.3-1.2,0.5-1.8,0.7c-0.6,0.2-1-0.1-0.8-0.7c0.4-1.6,0.9-3.1,1.4-4.6c0.7-2.1,0.9-4.3,0.8-6.6
				C151.7,20.3,151.7,20.2,151.7,20z"/>
			<path d="M164.5,37.3c-0.9,0.7-1.8,1.4-2.7,2.1c-0.4,0.3-0.8,0.3-1.2-0.1c-1.5-1.7-3.3-3.1-5.3-4.1c-0.8-0.4-1.7-0.5-2.5-0.8
				c-0.3-0.1-0.6-0.3-0.7-0.5c-0.1-0.1,0.2-0.5,0.4-0.7c1.5-1.1,3.8-1.5,5.4,0.2C159.6,35.2,161.9,36.6,164.5,37.3z"/>
			<path d="M176.6,27.5c-1.9-0.9-3.6-1.9-5.4-2.6c-0.8-0.3-1.8-0.3-2.6-0.5c-0.4-0.1-0.7-0.3-1-0.5c0.2-0.3,0.3-0.6,0.5-0.8
				c0.5-0.4,1.1-0.8,1.7-1c0.4-0.1,1,0.1,1.4,0.2c1.3,0.5,2.5,1.1,3.8,1.5c1.2,0.4,2.4,0.6,3.6,0.8c0.3,0.1,0.7-0.3,1.4-0.6
				C178.7,25.4,177.6,26.5,176.6,27.5z"/>
			<path d="M175,29c-1,0.9-1.8,1.6-2.7,2.2c-0.2,0.1-0.6,0-0.8-0.1c-2.2-1.1-4.2-2.6-6.7-3.1c-0.2-0.1-0.4-0.1-0.6-0.2
				c-0.3-0.1-0.7-0.2-0.8-0.5c-0.1-0.2,0.1-0.6,0.3-0.8c0.7-0.4,1.4-0.9,2.2-1.1c0.4-0.1,0.9,0.2,1.3,0.5c2,1.6,4.1,2.7,6.7,2.9
				C174.1,28.9,174.4,28.9,175,29z"/>
			<path d="M160.4,17.9c-0.1,1.1-0.2,2.2-0.4,3.2c-0.2,1.6-0.6,3.1-0.8,4.7c-0.2,1.5-1.1,2.5-2.2,3.4c-0.4,0.3-0.7,0-0.7-0.4
				c0.1-1.1,0.3-2.1,0.5-3.1c0.3-2.2,0.7-4.3,1-6.5c0-0.2,0.2-0.5,0.4-0.6C158.9,18.3,159.6,18.2,160.4,17.9z"/>
			<path d="M169.7,33.3c-0.7,0.5-1.4,1.1-2.1,1.7c-0.4,0.3-0.6,0.3-1,0c-1.5-1.2-3-2.3-4.6-3.4c-0.7-0.5-1.7-0.5-2.5-0.8
				c-0.3-0.1-0.6-0.3-0.9-0.5c0.2-0.3,0.3-0.6,0.5-0.8c1.3-1,2.6-0.9,3.9,0c1.3,0.9,2.5,1.8,3.9,2.6C167.7,32.7,168.7,33,169.7,33.3
				z"/>
			<path d="M171.9,21c0.7-1.6,2.2-2.2,3.8-1.8c2.3,0.6,4.7,1.1,7.1,0.6c0.1,0,0.3,0,0.6,0c-0.9,1.2-1.6,2.2-2.4,3.3
				c-2.5-1.3-5.2-1.9-8-1.8C172.5,21.3,172.2,21.1,171.9,21z"/>
			<path d="M185.5,15.7c-0.1,0.3-0.2,0.7-0.4,0.8c-0.6,0.6-0.5,1.9-1.5,2c-0.8,0-1.7-0.4-2.5-0.5c-1.2-0.2-2.4-0.3-3.6-0.5
				c-0.4-0.1-0.7-0.4-1.1-0.6c0.2-0.3,0.4-0.7,0.7-1c0.7-0.5,1.6-0.6,2.5-0.5C181.5,15.6,183.4,15.6,185.5,15.7z"/>
			<path d="M161.6,26.2c0-0.6-0.1-1.1,0-1.5c0.7-2.3,1.1-4.6,1.2-7c0-0.3,0.3-0.7,0.5-0.8c0.6-0.3,1.2-0.5,1.9-0.7
				c-0.1,0.7-0.2,1.4-0.4,2c-0.5,2.1-1,4.3-1.5,6.4C163.2,25.4,162.6,25.8,161.6,26.2z"/>
			<path d="M169.7,14.1c-0.2,1.5-0.4,3-0.6,4.4c-0.2,1.1-0.5,2.1-0.8,3.1c-0.2,0.6-0.6,1.1-1,1.5c-0.2,0.2-0.7,0.2-1.1,0.4
				c0-0.4-0.2-0.8-0.1-1.2c0.2-0.6,0.6-1,0.7-1.6c0.3-1.5,0.7-3,0.9-4.5C168,14.7,168,14.6,169.7,14.1z"/>
			<path d="M187.2,11.1c-0.3,1-0.7,2.1-1,3.2c-2-0.1-4-0.2-5.9-0.3c-0.1-0.7,0.2-1.3,0.9-1.5c1.1-0.3,2.2-0.4,3.3-0.7
				C185.3,11.6,186.3,11.4,187.2,11.1z"/>
			<path d="M173.9,11.5c-0.2,1-0.4,1.8-0.6,2.7c-0.2,1.2-0.3,2.4-0.7,3.5c-0.3,0.9-0.9,1.6-1.4,2.4c-0.2-0.1-0.6-0.3-0.6-0.4
				c0-0.4,0.1-0.8,0.2-1.2c0.1-0.8,0.3-1.5,0.4-2.3c0.1-0.9,0.1-1.8,0.2-2.7c0-0.2,0.2-0.5,0.4-0.7C172.4,12.3,173.1,12,173.9,11.5z
				"/>
			<path d="M180.9,6c-0.4,2.7-0.3,5.6-2.6,7.8c0-0.3,0-0.7,0-1c0.3-1.7,0.6-3.3,0.8-5c0-0.2,0.1-0.3,0.2-0.4
				C179.8,6.9,180.4,6.4,180.9,6z"/>
			<path d="M174.8,16.1c0.1-1.6,0.1-3.3,0.5-4.9c0.1-0.7,1-1.3,1.5-1.9c0.1,0.1,0.3,0.1,0.4,0.2c-0.2,1.5-0.4,3-0.7,4.5
				c-0.1,0.6-0.4,1.2-0.8,1.8c-0.1,0.2-0.4,0.4-0.7,0.5C175,16.2,174.9,16.1,174.8,16.1z"/>
			<path d="M184.4,2.4c-0.2,0.7-0.3,1.4-0.7,2c-0.4,0.6-0.3,1.6-0.2,2.4c0.1,1.1-0.5,1.9-1.2,2.6c-0.1,0.1-0.3,0.1-0.4,0.2
				c-0.1-0.1-0.2-0.3-0.2-0.4c0.1-1.2,0.3-2.4,0.4-3.6C182.2,4.1,183.5,3.4,184.4,2.4L184.4,2.4z"/>
			<path d="M184.4,2.4c0.6-0.8,1.2-1.6,1.8-2.4c0.5,0.6,0.6,1.1,0.2,1.7c-0.8,1.2-1.1,2.6-1.1,4.1c0,0.4-0.1,0.9-0.2,1.4
				c-0.1,0-0.3,0-0.4,0c0-0.8-0.1-1.5,0-2.3C184.8,4,184.9,3.1,184.4,2.4C184.4,2.4,184.4,2.4,184.4,2.4z"/>
			<path d="M183.1,11.3c-0.5-0.9,0.1-2.3,1.2-2.5c1.1-0.2,2.2-0.4,3.3-0.6c0,0.8-0.2,1.3-1.2,1.4c-1.2,0.1-2.2,0.6-3,1.6
				C183.3,11.2,183.2,11.3,183.1,11.3z"/>
			<path d="M187.6,5.3c0.2,1.3-0.4,2.1-1.6,2c-0.1,0-0.4-0.4-0.3-0.4C186.2,6.2,186.7,5.6,187.6,5.3z"/>
			<path d="M187.3,2c-0.1,0.6-0.2,1.2-0.3,1.8c-0.1,0-0.3,0-0.4-0.1c0.1-0.6,0.2-1.2,0.3-1.8C187,2,187.1,2,187.3,2z"/>
		</g>
	</g>
</g>
<g>
	<path d="M249,88.9c-0.6,8.1-3.6,14.5-9,19.1c-5.4,4.7-12.5,7-21.3,7c-9.7,0-17.2-3.2-22.8-9.7c-5.5-6.5-8.3-15.4-8.3-26.8v-4.6
		c0-7.2,1.3-13.6,3.8-19.1c2.6-5.5,6.2-9.7,10.9-12.7c4.7-2.9,10.2-4.4,16.5-4.4c8.7,0,15.7,2.3,21,7c5.3,4.7,8.4,11.2,9.2,19.6
		h-15.5c-0.4-4.9-1.7-8.4-4.1-10.6c-2.3-2.2-5.9-3.3-10.6-3.3c-5.2,0-9,1.9-11.6,5.6c-2.6,3.7-3.9,9.5-4,17.2v5.7
		c0,8.1,1.2,14.1,3.7,17.8c2.5,3.8,6.4,5.6,11.7,5.6c4.8,0,8.4-1.1,10.7-3.3c2.4-2.2,3.7-5.6,4.1-10.2H249z"/>
	<path d="M290.6,114c-0.7-1.3-1.2-3-1.5-5c-3.6,4-8.3,6.1-14.1,6.1c-5.5,0-10-1.6-13.6-4.8c-3.6-3.2-5.4-7.2-5.4-12
		c0-5.9,2.2-10.5,6.6-13.7c4.4-3.2,10.7-4.8,19.1-4.8h6.9v-3.2c0-2.6-0.7-4.7-2-6.2c-1.3-1.6-3.4-2.3-6.3-2.3
		c-2.5,0-4.5,0.6-5.9,1.8c-1.4,1.2-2.1,2.9-2.1,5h-14.9c0-3.2,1-6.2,3-9c2-2.8,4.8-4.9,8.5-6.5c3.7-1.6,7.8-2.4,12.3-2.4
		c6.9,0,12.4,1.7,16.4,5.2c4.1,3.5,6.1,8.3,6.1,14.6V101c0,5.3,0.8,9.3,2.2,12v0.9H290.6z M278.3,103.6c2.2,0,4.2-0.5,6.1-1.5
		c1.9-1,3.2-2.3,4.1-4v-9.6h-5.6c-7.5,0-11.5,2.6-11.9,7.8l-0.1,0.9c0,1.9,0.7,3.4,2,4.6C274.2,103,276,103.6,278.3,103.6z"/>
	<path d="M332.2,101.9h27.4v12h-46.4v-9.1l26.3-34.8h-25.5V58h44.8v8.8L332.2,101.9z"/>
	<path d="M382.6,58l0.5,6.5c4-5,9.4-7.5,16.1-7.5c5.9,0,10.3,1.7,13.2,5.2c2.9,3.5,4.4,8.7,4.4,15.6V114h-14.9V78.2
		c0-3.2-0.7-5.5-2.1-6.9c-1.4-1.4-3.7-2.1-6.9-2.1c-4.2,0-7.4,1.8-9.5,5.4V114h-14.9V58H382.6z"/>
	<path d="M460.6,114c-0.7-1.3-1.2-3-1.5-5c-3.6,4-8.3,6.1-14.1,6.1c-5.5,0-10-1.6-13.6-4.8c-3.6-3.2-5.4-7.2-5.4-12
		c0-5.9,2.2-10.5,6.6-13.7c4.4-3.2,10.7-4.8,19.1-4.8h6.9v-3.2c0-2.6-0.7-4.7-2-6.2c-1.3-1.6-3.4-2.3-6.3-2.3
		c-2.5,0-4.5,0.6-5.9,1.8c-1.4,1.2-2.1,2.9-2.1,5h-14.9c0-3.2,1-6.2,3-9c2-2.8,4.8-4.9,8.5-6.5c3.7-1.6,7.8-2.4,12.3-2.4
		c6.9,0,12.4,1.7,16.4,5.2c4.1,3.5,6.1,8.3,6.1,14.6V101c0,5.3,0.8,9.3,2.2,12v0.9H460.6z M448.3,103.6c2.2,0,4.2-0.5,6.1-1.5
		c1.9-1,3.2-2.3,4.1-4v-9.6h-5.6c-7.5,0-11.5,2.6-11.9,7.8l-0.1,0.9c0,1.9,0.7,3.4,2,4.6C444.2,103,446,103.6,448.3,103.6z"/>
</g>
<g>
	<path d="M565.7,93.7h-32.9l-7.5,20.3H519l27.4-72.4h5.8l27.4,72.4h-6.4L565.7,93.7z M534.7,88.5h29l-14.5-39.4L534.7,88.5z"/>
	<path d="M622.9,107.2c-3.6,5.2-9.3,7.8-17.2,7.8c-5.7,0-10.1-1.7-13.1-5c-3-3.3-4.5-8.3-4.6-14.8v-35h5.9v34.3
		c0,10.2,4.1,15.4,12.4,15.4c8.6,0,14.1-3.6,16.4-10.7V60.2h6V114H623L622.9,107.2z"/>
	<path d="M676.4,100.3c0-2.9-1.2-5.3-3.6-7.1c-2.4-1.8-5.9-3.2-10.7-4.2c-4.8-1-8.5-2.2-11.1-3.5c-2.6-1.3-4.6-2.9-5.9-4.8
		c-1.3-1.9-1.9-4.2-1.9-6.9c0-4.2,1.8-7.7,5.3-10.5c3.5-2.8,8.1-4.2,13.6-4.2c6,0,10.8,1.5,14.4,4.4c3.6,3,5.4,6.8,5.4,11.6h-6
		c0-3.1-1.3-5.8-4-7.9c-2.6-2.1-6-3.1-10-3.1c-3.9,0-7.1,0.9-9.4,2.6c-2.4,1.7-3.6,4-3.6,6.8c0,2.7,1,4.8,3,6.2
		c2,1.5,5.6,2.8,10.8,4.1c5.2,1.2,9.1,2.5,11.7,3.9c2.6,1.4,4.5,3.1,5.8,5c1.3,2,1.9,4.3,1.9,7.1c0,4.5-1.8,8.2-5.5,10.9
		c-3.7,2.7-8.4,4.1-14.3,4.1c-6.3,0-11.3-1.5-15.2-4.5c-3.9-3-5.8-6.9-5.8-11.5h6c0.2,3.5,1.7,6.2,4.4,8.1c2.7,1.9,6.3,2.9,10.7,2.9
		c4.1,0,7.5-0.9,10-2.7C675.2,105.4,676.4,103.1,676.4,100.3z"/>
	<path d="M705,46.4v13.8h11.1v4.9H705V101c0,3,0.5,5.2,1.6,6.7c1.1,1.5,2.9,2.2,5.4,2.2c1,0,2.6-0.2,4.8-0.5l0.2,4.8
		c-1.6,0.6-3.7,0.8-6.4,0.8c-4.1,0-7-1.2-8.9-3.6c-1.9-2.4-2.8-5.9-2.8-10.5V65.1h-9.9v-4.9h9.9V46.4H705z"/>
	<path d="M753.3,65.3c-1.3-0.2-2.6-0.3-4-0.3c-3.7,0-6.9,1-9.4,3.1c-2.6,2.1-4.4,5.1-5.5,9V114h-5.9V60.2h5.8l0.1,8.6
		c3.1-6.4,8.2-9.5,15.2-9.5c1.7,0,3,0.2,3.9,0.6L753.3,65.3z"/>
	<path d="M794.7,114c-0.6-1.7-1-4.2-1.1-7.5c-2.1,2.7-4.7,4.8-8,6.3c-3.2,1.5-6.7,2.2-10.3,2.2c-5.2,0-9.4-1.4-12.6-4.3
		c-3.2-2.9-4.8-6.5-4.8-10.9c0-5.2,2.2-9.4,6.5-12.4c4.4-3,10.4-4.6,18.2-4.6h10.8v-6.1c0-3.8-1.2-6.9-3.6-9.1
		c-2.4-2.2-5.8-3.3-10.4-3.3c-4.1,0-7.6,1.1-10.3,3.2c-2.7,2.1-4.1,4.7-4.1,7.7l-6,0c0-4.3,2-8,6-11.1c4-3.1,8.9-4.7,14.7-4.7
		c6,0,10.7,1.5,14.2,4.5c3.5,3,5.2,7.2,5.3,12.6v25.5c0,5.2,0.5,9.1,1.6,11.7v0.6H794.7z M776,109.7c4,0,7.5-1,10.7-2.9
		c3.1-1.9,5.4-4.5,6.8-7.7V87.3h-10.6c-5.9,0.1-10.6,1.2-13.9,3.3c-3.3,2.1-5,5-5,8.7c0,3,1.1,5.5,3.4,7.5
		C769.5,108.7,772.4,109.7,776,109.7z"/>
	<path d="M822,114h-6V37.6h6V114z"/>
	<path d="M837.8,44.7c0-1.1,0.4-2.1,1.1-2.8c0.7-0.8,1.7-1.2,3-1.2c1.3,0,2.3,0.4,3,1.2s1.1,1.7,1.1,2.8c0,1.1-0.4,2.1-1.1,2.8
		c-0.7,0.8-1.7,1.1-3,1.1c-1.3,0-2.3-0.4-3-1.1C838.1,46.7,837.8,45.8,837.8,44.7z M844.8,114h-6V60.2h6V114z"/>
	<path d="M894.9,114c-0.6-1.7-1-4.2-1.1-7.5c-2.1,2.7-4.7,4.8-8,6.3c-3.2,1.5-6.7,2.2-10.3,2.2c-5.2,0-9.4-1.4-12.6-4.3
		c-3.2-2.9-4.8-6.5-4.8-10.9c0-5.2,2.2-9.4,6.5-12.4c4.4-3,10.4-4.6,18.2-4.6h10.8v-6.1c0-3.8-1.2-6.9-3.6-9.1
		c-2.4-2.2-5.8-3.3-10.4-3.3c-4.1,0-7.6,1.1-10.3,3.2c-2.7,2.1-4.1,4.7-4.1,7.7l-6,0c0-4.3,2-8,6-11.1c4-3.1,8.9-4.7,14.7-4.7
		c6,0,10.7,1.5,14.2,4.5c3.5,3,5.2,7.2,5.3,12.6v25.5c0,5.2,0.5,9.1,1.6,11.7v0.6H894.9z M876.2,109.7c4,0,7.5-1,10.7-2.9
		c3.1-1.9,5.4-4.5,6.8-7.7V87.3h-10.6c-5.9,0.1-10.6,1.2-13.9,3.3c-3.3,2.1-5,5-5,8.7c0,3,1.1,5.5,3.4,7.5
		C869.7,108.7,872.6,109.7,876.2,109.7z"/>
</g>
</svg>
